<?xml version="1.0" encoding="UTF-8" standalone="no"?>
<!DOCTYPE svg PUBLIC "-//W3C//DTD SVG 1.1//EN"
 "http://www.w3.org/Graphics/SVG/1.1/DTD/svg11.dtd">
<!-- Generated by graphviz version 2.44.0 (0)
 -->
<!-- Title: G Pages: 1 -->
<svg width="547pt" height="1423pt"
 viewBox="0.00 0.00 410.00 1067.00" xmlns="http://www.w3.org/2000/svg" xmlns:xlink="http://www.w3.org/1999/xlink">
<g id="graph0" class="graph" transform="scale(1.33 1.33) rotate(0) translate(4 1063)">
<title>G</title>
<polygon fill="white" stroke="transparent" points="-4,4 -4,-1063 406,-1063 406,4 -4,4"/>
<!-- 139913201525008 -->
<g id="node1" class="node">
<title>139913201525008</title>
<polygon fill="none" stroke="black" points="93.5,-1022.5 93.5,-1058.5 308.5,-1058.5 308.5,-1022.5 93.5,-1022.5"/>
<text text-anchor="middle" x="201" y="-1036.8" font-family="Times,serif" font-size="14.00">conv2d_1_input: InputLayer</text>
</g>
<!-- 139913075949904 -->
<g id="node2" class="node">
<title>139913075949904</title>
<polygon fill="none" stroke="black" points="126.5,-949.5 126.5,-985.5 275.5,-985.5 275.5,-949.5 126.5,-949.5"/>
<text text-anchor="middle" x="201" y="-963.8" font-family="Times,serif" font-size="14.00">conv2d_1: Conv2D</text>
</g>
<!-- 139913201525008&#45;&gt;139913075949904 -->
<g id="edge1" class="edge">
<title>139913201525008&#45;&gt;139913075949904</title>
<path fill="none" stroke="black" d="M201,-1022.31C201,-1014.29 201,-1004.55 201,-995.57"/>
<polygon fill="black" stroke="black" points="204.5,-995.53 201,-985.53 197.5,-995.53 204.5,-995.53"/>
</g>
<!-- 139912866556816 -->
<g id="node3" class="node">
<title>139912866556816</title>
<polygon fill="none" stroke="black" points="75,-876.5 75,-912.5 327,-912.5 327,-876.5 75,-876.5"/>
<text text-anchor="middle" x="201" y="-890.8" font-family="Times,serif" font-size="14.00">max_pooling2d_1: MaxPooling2D</text>
</g>
<!-- 139913075949904&#45;&gt;139912866556816 -->
<g id="edge2" class="edge">
<title>139913075949904&#45;&gt;139912866556816</title>
<path fill="none" stroke="black" d="M201,-949.31C201,-941.29 201,-931.55 201,-922.57"/>
<polygon fill="black" stroke="black" points="204.5,-922.53 201,-912.53 197.5,-922.53 204.5,-922.53"/>
</g>
<!-- 139912866229520 -->
<g id="node4" class="node">
<title>139912866229520</title>
<polygon fill="none" stroke="black" points="123,-803.5 123,-839.5 279,-839.5 279,-803.5 123,-803.5"/>
<text text-anchor="middle" x="201" y="-817.8" font-family="Times,serif" font-size="14.00">dropout_1: Dropout</text>
</g>
<!-- 139912866556816&#45;&gt;139912866229520 -->
<g id="edge3" class="edge">
<title>139912866556816&#45;&gt;139912866229520</title>
<path fill="none" stroke="black" d="M201,-876.31C201,-868.29 201,-858.55 201,-849.57"/>
<polygon fill="black" stroke="black" points="204.5,-849.53 201,-839.53 197.5,-849.53 204.5,-849.53"/>
</g>
<!-- 139912866228240 -->
<g id="node5" class="node">
<title>139912866228240</title>
<polygon fill="none" stroke="black" points="126.5,-730.5 126.5,-766.5 275.5,-766.5 275.5,-730.5 126.5,-730.5"/>
<text text-anchor="middle" x="201" y="-744.8" font-family="Times,serif" font-size="14.00">conv2d_2: Conv2D</text>
</g>
<!-- 139912866229520&#45;&gt;139912866228240 -->
<g id="edge4" class="edge">
<title>139912866229520&#45;&gt;139912866228240</title>
<path fill="none" stroke="black" d="M201,-803.31C201,-795.29 201,-785.55 201,-776.57"/>
<polygon fill="black" stroke="black" points="204.5,-776.53 201,-766.53 197.5,-776.53 204.5,-776.53"/>
</g>
<!-- 139912866101840 -->
<g id="node6" class="node">
<title>139912866101840</title>
<polygon fill="none" stroke="black" points="75,-657.5 75,-693.5 327,-693.5 327,-657.5 75,-657.5"/>
<text text-anchor="middle" x="201" y="-671.8" font-family="Times,serif" font-size="14.00">max_pooling2d_2: MaxPooling2D</text>
</g>
<!-- 139912866228240&#45;&gt;139912866101840 -->
<g id="edge5" class="edge">
<title>139912866228240&#45;&gt;139912866101840</title>
<path fill="none" stroke="black" d="M201,-730.31C201,-722.29 201,-712.55 201,-703.57"/>
<polygon fill="black" stroke="black" points="204.5,-703.53 201,-693.53 197.5,-703.53 204.5,-703.53"/>
</g>
<!-- 139912866101776 -->
<g id="node7" class="node">
<title>139912866101776</title>
<polygon fill="none" stroke="black" points="123,-584.5 123,-620.5 279,-620.5 279,-584.5 123,-584.5"/>
<text text-anchor="middle" x="201" y="-598.8" font-family="Times,serif" font-size="14.00">dropout_2: Dropout</text>
</g>
<!-- 139912866101840&#45;&gt;139912866101776 -->
<g id="edge6" class="edge">
<title>139912866101840&#45;&gt;139912866101776</title>
<path fill="none" stroke="black" d="M201,-657.31C201,-649.29 201,-639.55 201,-630.57"/>
<polygon fill="black" stroke="black" points="204.5,-630.53 201,-620.53 197.5,-630.53 204.5,-630.53"/>
</g>
<!-- 139912866102800 -->
<g id="node8" class="node">
<title>139912866102800</title>
<polygon fill="none" stroke="black" points="126.5,-511.5 126.5,-547.5 275.5,-547.5 275.5,-511.5 126.5,-511.5"/>
<text text-anchor="middle" x="201" y="-525.8" font-family="Times,serif" font-size="14.00">conv2d_3: Conv2D</text>
</g>
<!-- 139912866101776&#45;&gt;139912866102800 -->
<g id="edge7" class="edge">
<title>139912866101776&#45;&gt;139912866102800</title>
<path fill="none" stroke="black" d="M201,-584.31C201,-576.29 201,-566.55 201,-557.57"/>
<polygon fill="black" stroke="black" points="204.5,-557.53 201,-547.53 197.5,-557.53 204.5,-557.53"/>
</g>
<!-- 139912866379920 -->
<g id="node9" class="node">
<title>139912866379920</title>
<polygon fill="none" stroke="black" points="75,-438.5 75,-474.5 327,-474.5 327,-438.5 75,-438.5"/>
<text text-anchor="middle" x="201" y="-452.8" font-family="Times,serif" font-size="14.00">max_pooling2d_3: MaxPooling2D</text>
</g>
<!-- 139912866102800&#45;&gt;139912866379920 -->
<g id="edge8" class="edge">
<title>139912866102800&#45;&gt;139912866379920</title>
<path fill="none" stroke="black" d="M201,-511.31C201,-503.29 201,-493.55 201,-484.57"/>
<polygon fill="black" stroke="black" points="204.5,-484.53 201,-474.53 197.5,-484.53 204.5,-484.53"/>
</g>
<!-- 139912865737744 -->
<g id="node10" class="node">
<title>139912865737744</title>
<polygon fill="none" stroke="black" points="123,-365.5 123,-401.5 279,-401.5 279,-365.5 123,-365.5"/>
<text text-anchor="middle" x="201" y="-379.8" font-family="Times,serif" font-size="14.00">dropout_3: Dropout</text>
</g>
<!-- 139912866379920&#45;&gt;139912865737744 -->
<g id="edge9" class="edge">
<title>139912866379920&#45;&gt;139912865737744</title>
<path fill="none" stroke="black" d="M201,-438.31C201,-430.29 201,-420.55 201,-411.57"/>
<polygon fill="black" stroke="black" points="204.5,-411.53 201,-401.53 197.5,-411.53 204.5,-411.53"/>
</g>
<!-- 139912865761744 -->
<g id="node11" class="node">
<title>139912865761744</title>
<polygon fill="none" stroke="black" points="126.5,-292.5 126.5,-328.5 275.5,-328.5 275.5,-292.5 126.5,-292.5"/>
<text text-anchor="middle" x="201" y="-306.8" font-family="Times,serif" font-size="14.00">conv2d_4: Conv2D</text>
</g>
<!-- 139912865737744&#45;&gt;139912865761744 -->
<g id="edge10" class="edge">
<title>139912865737744&#45;&gt;139912865761744</title>
<path fill="none" stroke="black" d="M201,-365.31C201,-357.29 201,-347.55 201,-338.57"/>
<polygon fill="black" stroke="black" points="204.5,-338.53 201,-328.53 197.5,-338.53 204.5,-338.53"/>
</g>
<!-- 139912865832208 -->
<g id="node12" class="node">
<title>139912865832208</title>
<polygon fill="none" stroke="black" points="75,-219.5 75,-255.5 327,-255.5 327,-219.5 75,-219.5"/>
<text text-anchor="middle" x="201" y="-233.8" font-family="Times,serif" font-size="14.00">max_pooling2d_4: MaxPooling2D</text>
</g>
<!-- 139912865761744&#45;&gt;139912865832208 -->
<g id="edge11" class="edge">
<title>139912865761744&#45;&gt;139912865832208</title>
<path fill="none" stroke="black" d="M201,-292.31C201,-284.29 201,-274.55 201,-265.57"/>
<polygon fill="black" stroke="black" points="204.5,-265.53 201,-255.53 197.5,-265.53 204.5,-265.53"/>
</g>
<!-- 139912865830736 -->
<g id="node13" class="node">
<title>139912865830736</title>
<polygon fill="none" stroke="black" points="123,-146.5 123,-182.5 279,-182.5 279,-146.5 123,-146.5"/>
<text text-anchor="middle" x="201" y="-160.8" font-family="Times,serif" font-size="14.00">dropout_4: Dropout</text>
</g>
<!-- 139912865832208&#45;&gt;139912865830736 -->
<g id="edge12" class="edge">
<title>139912865832208&#45;&gt;139912865830736</title>
<path fill="none" stroke="black" d="M201,-219.31C201,-211.29 201,-201.55 201,-192.57"/>
<polygon fill="black" stroke="black" points="204.5,-192.53 201,-182.53 197.5,-192.53 204.5,-192.53"/>
</g>
<!-- 139912865736400 -->
<g id="node14" class="node">
<title>139912865736400</title>
<polygon fill="none" stroke="black" points="0,-73.5 0,-109.5 402,-109.5 402,-73.5 0,-73.5"/>
<text text-anchor="middle" x="201" y="-87.8" font-family="Times,serif" font-size="14.00">global_average_pooling2d_1: GlobalAveragePooling2D</text>
</g>
<!-- 139912865830736&#45;&gt;139912865736400 -->
<g id="edge13" class="edge">
<title>139912865830736&#45;&gt;139912865736400</title>
<path fill="none" stroke="black" d="M201,-146.31C201,-138.29 201,-128.55 201,-119.57"/>
<polygon fill="black" stroke="black" points="204.5,-119.53 201,-109.53 197.5,-119.53 204.5,-119.53"/>
</g>
<!-- 139912865886160 -->
<g id="node15" class="node">
<title>139912865886160</title>
<polygon fill="none" stroke="black" points="137,-0.5 137,-36.5 265,-36.5 265,-0.5 137,-0.5"/>
<text text-anchor="middle" x="201" y="-14.8" font-family="Times,serif" font-size="14.00">dense_1: Dense</text>
</g>
<!-- 139912865736400&#45;&gt;139912865886160 -->
<g id="edge14" class="edge">
<title>139912865736400&#45;&gt;139912865886160</title>
<path fill="none" stroke="black" d="M201,-73.31C201,-65.29 201,-55.55 201,-46.57"/>
<polygon fill="black" stroke="black" points="204.5,-46.53 201,-36.53 197.5,-46.53 204.5,-46.53"/>
</g>
</g>
</svg>
