<?xml version="1.0" encoding="UTF-8" standalone="no"?>
<!DOCTYPE svg PUBLIC "-//W3C//DTD SVG 1.1//EN"
 "http://www.w3.org/Graphics/SVG/1.1/DTD/svg11.dtd">
<!-- Generated by graphviz version 2.43.0 (0)
 -->
<!-- Title: G Pages: 1 -->
<svg width="559pt" height="1423pt"
 viewBox="0.00 0.00 419.00 1067.00" xmlns="http://www.w3.org/2000/svg" xmlns:xlink="http://www.w3.org/1999/xlink">
<g id="graph0" class="graph" transform="scale(0.75 0.75) rotate(0) translate(4 1063)">
<title>G</title>
<polygon fill="white" stroke="transparent" points="-4,4 -4,-1063 415,-1063 415,4 -4,4"/>
<!-- 139880145918272 -->
<g id="node1" class="node">
<title>139880145918272</title>
<polygon fill="none" stroke="black" points="94,-1022.5 94,-1058.5 317,-1058.5 317,-1022.5 94,-1022.5"/>
<text text-anchor="middle" x="158" y="-1036.8" font-family="Times,serif" font-size="14.00">conv2d_4_input</text>
<polyline fill="none" stroke="black" points="222,-1022.5 222,-1058.5 "/>
<text text-anchor="middle" x="269.5" y="-1036.8" font-family="Times,serif" font-size="14.00">InputLayer</text>
</g>
<!-- 139880126189968 -->
<g id="node2" class="node">
<title>139880126189968</title>
<polygon fill="none" stroke="black" points="127.5,-949.5 127.5,-985.5 283.5,-985.5 283.5,-949.5 127.5,-949.5"/>
<text text-anchor="middle" x="169" y="-963.8" font-family="Times,serif" font-size="14.00">conv2d_4</text>
<polyline fill="none" stroke="black" points="210.5,-949.5 210.5,-985.5 "/>
<text text-anchor="middle" x="247" y="-963.8" font-family="Times,serif" font-size="14.00">Conv2D</text>
</g>
<!-- 139880145918272&#45;&gt;139880126189968 -->
<g id="edge1" class="edge">
<title>139880145918272&#45;&gt;139880126189968</title>
<path fill="none" stroke="black" d="M205.5,-1022.31C205.5,-1014.29 205.5,-1004.55 205.5,-995.57"/>
<polygon fill="black" stroke="black" points="209,-995.53 205.5,-985.53 202,-995.53 209,-995.53"/>
</g>
<!-- 139880126192224 -->
<g id="node3" class="node">
<title>139880126192224</title>
<polygon fill="none" stroke="black" points="75.5,-876.5 75.5,-912.5 335.5,-912.5 335.5,-876.5 75.5,-876.5"/>
<text text-anchor="middle" x="145.5" y="-890.8" font-family="Times,serif" font-size="14.00">max_pooling2d_4</text>
<polyline fill="none" stroke="black" points="215.5,-876.5 215.5,-912.5 "/>
<text text-anchor="middle" x="275.5" y="-890.8" font-family="Times,serif" font-size="14.00">MaxPooling2D</text>
</g>
<!-- 139880126189968&#45;&gt;139880126192224 -->
<g id="edge2" class="edge">
<title>139880126189968&#45;&gt;139880126192224</title>
<path fill="none" stroke="black" d="M205.5,-949.31C205.5,-941.29 205.5,-931.55 205.5,-922.57"/>
<polygon fill="black" stroke="black" points="209,-922.53 205.5,-912.53 202,-922.53 209,-922.53"/>
</g>
<!-- 139880106043712 -->
<g id="node4" class="node">
<title>139880106043712</title>
<polygon fill="none" stroke="black" points="123.5,-803.5 123.5,-839.5 287.5,-839.5 287.5,-803.5 123.5,-803.5"/>
<text text-anchor="middle" x="168" y="-817.8" font-family="Times,serif" font-size="14.00">dropout_4</text>
<polyline fill="none" stroke="black" points="212.5,-803.5 212.5,-839.5 "/>
<text text-anchor="middle" x="250" y="-817.8" font-family="Times,serif" font-size="14.00">Dropout</text>
</g>
<!-- 139880126192224&#45;&gt;139880106043712 -->
<g id="edge3" class="edge">
<title>139880126192224&#45;&gt;139880106043712</title>
<path fill="none" stroke="black" d="M205.5,-876.31C205.5,-868.29 205.5,-858.55 205.5,-849.57"/>
<polygon fill="black" stroke="black" points="209,-849.53 205.5,-839.53 202,-849.53 209,-849.53"/>
</g>
<!-- 139880105759840 -->
<g id="node5" class="node">
<title>139880105759840</title>
<polygon fill="none" stroke="black" points="127.5,-730.5 127.5,-766.5 283.5,-766.5 283.5,-730.5 127.5,-730.5"/>
<text text-anchor="middle" x="169" y="-744.8" font-family="Times,serif" font-size="14.00">conv2d_5</text>
<polyline fill="none" stroke="black" points="210.5,-730.5 210.5,-766.5 "/>
<text text-anchor="middle" x="247" y="-744.8" font-family="Times,serif" font-size="14.00">Conv2D</text>
</g>
<!-- 139880106043712&#45;&gt;139880105759840 -->
<g id="edge4" class="edge">
<title>139880106043712&#45;&gt;139880105759840</title>
<path fill="none" stroke="black" d="M205.5,-803.31C205.5,-795.29 205.5,-785.55 205.5,-776.57"/>
<polygon fill="black" stroke="black" points="209,-776.53 205.5,-766.53 202,-776.53 209,-776.53"/>
</g>
<!-- 139880105760656 -->
<g id="node6" class="node">
<title>139880105760656</title>
<polygon fill="none" stroke="black" points="75.5,-657.5 75.5,-693.5 335.5,-693.5 335.5,-657.5 75.5,-657.5"/>
<text text-anchor="middle" x="145.5" y="-671.8" font-family="Times,serif" font-size="14.00">max_pooling2d_5</text>
<polyline fill="none" stroke="black" points="215.5,-657.5 215.5,-693.5 "/>
<text text-anchor="middle" x="275.5" y="-671.8" font-family="Times,serif" font-size="14.00">MaxPooling2D</text>
</g>
<!-- 139880105759840&#45;&gt;139880105760656 -->
<g id="edge5" class="edge">
<title>139880105759840&#45;&gt;139880105760656</title>
<path fill="none" stroke="black" d="M205.5,-730.31C205.5,-722.29 205.5,-712.55 205.5,-703.57"/>
<polygon fill="black" stroke="black" points="209,-703.53 205.5,-693.53 202,-703.53 209,-703.53"/>
</g>
<!-- 139880105835104 -->
<g id="node7" class="node">
<title>139880105835104</title>
<polygon fill="none" stroke="black" points="123.5,-584.5 123.5,-620.5 287.5,-620.5 287.5,-584.5 123.5,-584.5"/>
<text text-anchor="middle" x="168" y="-598.8" font-family="Times,serif" font-size="14.00">dropout_5</text>
<polyline fill="none" stroke="black" points="212.5,-584.5 212.5,-620.5 "/>
<text text-anchor="middle" x="250" y="-598.8" font-family="Times,serif" font-size="14.00">Dropout</text>
</g>
<!-- 139880105760656&#45;&gt;139880105835104 -->
<g id="edge6" class="edge">
<title>139880105760656&#45;&gt;139880105835104</title>
<path fill="none" stroke="black" d="M205.5,-657.31C205.5,-649.29 205.5,-639.55 205.5,-630.57"/>
<polygon fill="black" stroke="black" points="209,-630.53 205.5,-620.53 202,-630.53 209,-630.53"/>
</g>
<!-- 139880105923968 -->
<g id="node8" class="node">
<title>139880105923968</title>
<polygon fill="none" stroke="black" points="127.5,-511.5 127.5,-547.5 283.5,-547.5 283.5,-511.5 127.5,-511.5"/>
<text text-anchor="middle" x="169" y="-525.8" font-family="Times,serif" font-size="14.00">conv2d_6</text>
<polyline fill="none" stroke="black" points="210.5,-511.5 210.5,-547.5 "/>
<text text-anchor="middle" x="247" y="-525.8" font-family="Times,serif" font-size="14.00">Conv2D</text>
</g>
<!-- 139880105835104&#45;&gt;139880105923968 -->
<g id="edge7" class="edge">
<title>139880105835104&#45;&gt;139880105923968</title>
<path fill="none" stroke="black" d="M205.5,-584.31C205.5,-576.29 205.5,-566.55 205.5,-557.57"/>
<polygon fill="black" stroke="black" points="209,-557.53 205.5,-547.53 202,-557.53 209,-557.53"/>
</g>
<!-- 139880105924448 -->
<g id="node9" class="node">
<title>139880105924448</title>
<polygon fill="none" stroke="black" points="75.5,-438.5 75.5,-474.5 335.5,-474.5 335.5,-438.5 75.5,-438.5"/>
<text text-anchor="middle" x="145.5" y="-452.8" font-family="Times,serif" font-size="14.00">max_pooling2d_6</text>
<polyline fill="none" stroke="black" points="215.5,-438.5 215.5,-474.5 "/>
<text text-anchor="middle" x="275.5" y="-452.8" font-family="Times,serif" font-size="14.00">MaxPooling2D</text>
</g>
<!-- 139880105923968&#45;&gt;139880105924448 -->
<g id="edge8" class="edge">
<title>139880105923968&#45;&gt;139880105924448</title>
<path fill="none" stroke="black" d="M205.5,-511.31C205.5,-503.29 205.5,-493.55 205.5,-484.57"/>
<polygon fill="black" stroke="black" points="209,-484.53 205.5,-474.53 202,-484.53 209,-484.53"/>
</g>
<!-- 139880105833760 -->
<g id="node10" class="node">
<title>139880105833760</title>
<polygon fill="none" stroke="black" points="123.5,-365.5 123.5,-401.5 287.5,-401.5 287.5,-365.5 123.5,-365.5"/>
<text text-anchor="middle" x="168" y="-379.8" font-family="Times,serif" font-size="14.00">dropout_6</text>
<polyline fill="none" stroke="black" points="212.5,-365.5 212.5,-401.5 "/>
<text text-anchor="middle" x="250" y="-379.8" font-family="Times,serif" font-size="14.00">Dropout</text>
</g>
<!-- 139880105924448&#45;&gt;139880105833760 -->
<g id="edge9" class="edge">
<title>139880105924448&#45;&gt;139880105833760</title>
<path fill="none" stroke="black" d="M205.5,-438.31C205.5,-430.29 205.5,-420.55 205.5,-411.57"/>
<polygon fill="black" stroke="black" points="209,-411.53 205.5,-401.53 202,-411.53 209,-411.53"/>
</g>
<!-- 139880105950080 -->
<g id="node11" class="node">
<title>139880105950080</title>
<polygon fill="none" stroke="black" points="127.5,-292.5 127.5,-328.5 283.5,-328.5 283.5,-292.5 127.5,-292.5"/>
<text text-anchor="middle" x="169" y="-306.8" font-family="Times,serif" font-size="14.00">conv2d_7</text>
<polyline fill="none" stroke="black" points="210.5,-292.5 210.5,-328.5 "/>
<text text-anchor="middle" x="247" y="-306.8" font-family="Times,serif" font-size="14.00">Conv2D</text>
</g>
<!-- 139880105833760&#45;&gt;139880105950080 -->
<g id="edge10" class="edge">
<title>139880105833760&#45;&gt;139880105950080</title>
<path fill="none" stroke="black" d="M205.5,-365.31C205.5,-357.29 205.5,-347.55 205.5,-338.57"/>
<polygon fill="black" stroke="black" points="209,-338.53 205.5,-328.53 202,-338.53 209,-338.53"/>
</g>
<!-- 139879843063840 -->
<g id="node12" class="node">
<title>139879843063840</title>
<polygon fill="none" stroke="black" points="75.5,-219.5 75.5,-255.5 335.5,-255.5 335.5,-219.5 75.5,-219.5"/>
<text text-anchor="middle" x="145.5" y="-233.8" font-family="Times,serif" font-size="14.00">max_pooling2d_7</text>
<polyline fill="none" stroke="black" points="215.5,-219.5 215.5,-255.5 "/>
<text text-anchor="middle" x="275.5" y="-233.8" font-family="Times,serif" font-size="14.00">MaxPooling2D</text>
</g>
<!-- 139880105950080&#45;&gt;139879843063840 -->
<g id="edge11" class="edge">
<title>139880105950080&#45;&gt;139879843063840</title>
<path fill="none" stroke="black" d="M205.5,-292.31C205.5,-284.29 205.5,-274.55 205.5,-265.57"/>
<polygon fill="black" stroke="black" points="209,-265.53 205.5,-255.53 202,-265.53 209,-265.53"/>
</g>
<!-- 139880105951040 -->
<g id="node13" class="node">
<title>139880105951040</title>
<polygon fill="none" stroke="black" points="123.5,-146.5 123.5,-182.5 287.5,-182.5 287.5,-146.5 123.5,-146.5"/>
<text text-anchor="middle" x="168" y="-160.8" font-family="Times,serif" font-size="14.00">dropout_7</text>
<polyline fill="none" stroke="black" points="212.5,-146.5 212.5,-182.5 "/>
<text text-anchor="middle" x="250" y="-160.8" font-family="Times,serif" font-size="14.00">Dropout</text>
</g>
<!-- 139879843063840&#45;&gt;139880105951040 -->
<g id="edge12" class="edge">
<title>139879843063840&#45;&gt;139880105951040</title>
<path fill="none" stroke="black" d="M205.5,-219.31C205.5,-211.29 205.5,-201.55 205.5,-192.57"/>
<polygon fill="black" stroke="black" points="209,-192.53 205.5,-182.53 202,-192.53 209,-192.53"/>
</g>
<!-- 139879843087600 -->
<g id="node14" class="node">
<title>139879843087600</title>
<polygon fill="none" stroke="black" points="0,-73.5 0,-109.5 411,-109.5 411,-73.5 0,-73.5"/>
<text text-anchor="middle" x="108.5" y="-87.8" font-family="Times,serif" font-size="14.00">global_average_pooling2d_1</text>
<polyline fill="none" stroke="black" points="217,-73.5 217,-109.5 "/>
<text text-anchor="middle" x="314" y="-87.8" font-family="Times,serif" font-size="14.00">GlobalAveragePooling2D</text>
</g>
<!-- 139880105951040&#45;&gt;139879843087600 -->
<g id="edge13" class="edge">
<title>139880105951040&#45;&gt;139879843087600</title>
<path fill="none" stroke="black" d="M205.5,-146.31C205.5,-138.29 205.5,-128.55 205.5,-119.57"/>
<polygon fill="black" stroke="black" points="209,-119.53 205.5,-109.53 202,-119.53 209,-119.53"/>
</g>
<!-- 139879843089232 -->
<g id="node15" class="node">
<title>139879843089232</title>
<polygon fill="none" stroke="black" points="138,-0.5 138,-36.5 273,-36.5 273,-0.5 138,-0.5"/>
<text text-anchor="middle" x="175" y="-14.8" font-family="Times,serif" font-size="14.00">dense_1</text>
<polyline fill="none" stroke="black" points="212,-0.5 212,-36.5 "/>
<text text-anchor="middle" x="242.5" y="-14.8" font-family="Times,serif" font-size="14.00">Dense</text>
</g>
<!-- 139879843087600&#45;&gt;139879843089232 -->
<g id="edge14" class="edge">
<title>139879843087600&#45;&gt;139879843089232</title>
<path fill="none" stroke="black" d="M205.5,-73.31C205.5,-65.29 205.5,-55.55 205.5,-46.57"/>
<polygon fill="black" stroke="black" points="209,-46.53 205.5,-36.53 202,-46.53 209,-46.53"/>
</g>
</g>
</svg>
